<?xml version="1.0" encoding="UTF-8" standalone="no"?>
<svg
   version="1.0"
   width="217.000000pt"
   height="245.000000pt"
   viewBox="0 0 217.000000 245.000000"
   preserveAspectRatio="xMidYMid meet"
   id="svg2"
   inkscape:version="1.1.1 (3bf5ae0d25, 2021-09-20)"
   sodipodi:docname="wskaznik-11a.svg"
   inkscape:export-filename="D:\probable-journey\skryptkierownik-img\wskaznik-11a.png"
   inkscape:export-xdpi="156.21001"
   inkscape:export-ydpi="156.21001"
   xmlns:inkscape="http://www.inkscape.org/namespaces/inkscape"
   xmlns:sodipodi="http://sodipodi.sourceforge.net/DTD/sodipodi-0.dtd"
   xmlns="http://www.w3.org/2000/svg"
   xmlns:svg="http://www.w3.org/2000/svg"
   xmlns:rdf="http://www.w3.org/1999/02/22-rdf-syntax-ns#"
   xmlns:cc="http://creativecommons.org/ns#"
   xmlns:dc="http://purl.org/dc/elements/1.1/">
  <defs
     id="defs16" />
  <sodipodi:namedview
     pagecolor="#ffffff"
     bordercolor="#666666"
     borderopacity="1"
     objecttolerance="10"
     gridtolerance="10"
     guidetolerance="10"
     inkscape:pageopacity="0"
     inkscape:pageshadow="2"
     inkscape:window-width="1366"
     inkscape:window-height="705"
     id="namedview14"
     showgrid="false"
     inkscape:zoom="1.4142136"
     inkscape:cx="366.63486"
     inkscape:cy="169.35207"
     inkscape:window-x="-8"
     inkscape:window-y="-8"
     inkscape:window-maximized="1"
     inkscape:current-layer="svg2"
     inkscape:pagecheckerboard="0"
     inkscape:document-units="pt" />
  <metadata
     id="metadata4">
Created by potrace 1.11, written by Peter Selinger 2001-2013
<rdf:RDF>
  <cc:Work
     rdf:about="">
    <dc:format>image/svg+xml</dc:format>
    <dc:type
       rdf:resource="http://purl.org/dc/dcmitype/StillImage" />
    <dc:title />
  </cc:Work>
</rdf:RDF>
</metadata>
  <rect
     style="fill:#ffffff"
     id="rect3070"
     width="56.799999"
     height="212.8"
     x="11.2"
     y="8.1999969" />
  <rect
     style="fill:#ffffff"
     id="rect3070-4"
     width="56.799999"
     height="212.8"
     x="79.999977"
     y="8.1999931" />
  <rect
     style="fill:#ffffff"
     id="rect3070-8"
     width="56.799999"
     height="212.8"
     x="148.80002"
     y="8.1999931" />
  <rect
     y="218.36099"
     x="36.160992"
     height="22.878017"
     width="6.8780179"
     id="rect2170"
     style="fill:#808080;fill-opacity:1;stroke:#000000;stroke-width:1.12198186;stroke-linecap:square;stroke-linejoin:miter;stroke-miterlimit:4;stroke-opacity:1;stroke-dasharray:none;stroke-dashoffset:0" />
  <rect
     y="218.36099"
     x="104.96099"
     height="22.878017"
     width="6.8780184"
     id="rect2170-0"
     style="fill:#808080;fill-opacity:1;stroke:#000000;stroke-width:1.12198186;stroke-linecap:square;stroke-linejoin:miter;stroke-miterlimit:4;stroke-opacity:1;stroke-dasharray:none;stroke-dashoffset:0" />
  <rect
     y="218.36099"
     x="173.76099"
     height="22.878017"
     width="6.8780184"
     id="rect2170-9"
     style="fill:#808080;fill-opacity:1;stroke:#000000;stroke-width:1.12198186;stroke-linecap:square;stroke-linejoin:miter;stroke-miterlimit:4;stroke-opacity:1;stroke-dasharray:none;stroke-dashoffset:0" />
  <g
     transform="translate(0.000000,245.000000) scale(0.100000,-0.100000)"
     fill="#000000"
     stroke="none"
     id="g6">
    <path
       d="m 112,240 c 0,0 568.13611,-0.1544 568,0 l 0,1065 0,1063 -568,0 c 0.32843,-0.3197 0,-2128 0,-2128 z m 536,1320 -504,-328 0,1104 504,0 z m 0,-1288 -504,0 0,776 504,328 z"
       id="path8"
       inkscape:connector-curvature="0"
       sodipodi:nodetypes="cccccccccccccccc" />
    <path
       d="m 800,240 568,0 0,2128 c 0,0 -378,0 -568,0 0,-5.055 0,-2128 0,-2128 z m 536,1528 -504,-328 0,896 504,0 z m 0,-424 -504,-328 0,240 504,328 z m 0,-1072 -504,0 0,560 504,328 z"
       id="path10"
       inkscape:connector-curvature="0"
       sodipodi:nodetypes="cccccccccccccccccccc" />
    <path
       d="m 1488,240 568,0 0,2128 -568,0 z m 536,1728 -504,-328 0,696 504,0 z m 0,-424 -504,-328 0,240 504,328 z m 0,-424 -504,-328 0,240 504,328 z m 0,-848 -504,0 0,336 504,328 z"
       id="path12"
       inkscape:connector-curvature="0"
       sodipodi:nodetypes="ccccccccccccccccccccccccc" />
  </g>
</svg>
